<?xml version="1.0" encoding="UTF-8" standalone="no"?>
<!-- Created with Inkscape (http://www.inkscape.org/) -->

<svg
   xmlns:dc="http://purl.org/dc/elements/1.1/"
   xmlns:cc="http://creativecommons.org/ns#"
   xmlns:rdf="http://www.w3.org/1999/02/22-rdf-syntax-ns#"
   xmlns:svg="http://www.w3.org/2000/svg"
   xmlns="http://www.w3.org/2000/svg"
   xmlns:sodipodi="http://sodipodi.sourceforge.net/DTD/sodipodi-0.dtd"
   xmlns:inkscape="http://www.inkscape.org/namespaces/inkscape"
   width="210mm"
   height="297mm"
   viewBox="0 0 210 297"
   version="1.1"
   id="svg8"
   inkscape:version="0.92.3 (2405546, 2018-03-11)"
   sodipodi:docname="AppIcon.svg">
  <defs
     id="defs2" />
  <sodipodi:namedview
     id="base"
     pagecolor="#ffffff"
     bordercolor="#666666"
     borderopacity="1.0"
     inkscape:pageopacity="0.0"
     inkscape:pageshadow="2"
     inkscape:zoom="0.59"
     inkscape:cx="22.480155"
     inkscape:cy="650.573"
     inkscape:document-units="mm"
     inkscape:current-layer="layer1"
     showgrid="false"
     inkscape:window-width="1920"
     inkscape:window-height="1017"
     inkscape:window-x="-8"
     inkscape:window-y="-8"
     inkscape:window-maximized="1" />
  <metadata
     id="metadata5">
    <rdf:RDF>
      <cc:Work
         rdf:about="">
        <dc:format>image/svg+xml</dc:format>
        <dc:type
           rdf:resource="http://purl.org/dc/dcmitype/StillImage" />
        <dc:title></dc:title>
      </cc:Work>
    </rdf:RDF>
  </metadata>
  <g
     inkscape:label="Layer 1"
     inkscape:groupmode="layer"
     id="layer1">
    <g
       id="g4584"
       transform="translate(13.901836,-0.89689266)"
       inkscape:export-filename="C:\Unencrypted\Workbench\sandboxes\PrenatalDebugger\AppIcon\AppIcon256.png"
       inkscape:export-xdpi="40.709999"
       inkscape:export-ydpi="40.709999">
      <circle
         r="57.401131"
         cy="102.82274"
         cx="89.68927"
         id="path4577"
         style="fill:#ffffff;fill-opacity:1;stroke:none;stroke-width:0.26458332;stroke-linecap:butt;stroke-linejoin:round;stroke-miterlimit:4;stroke-dasharray:none;stroke-opacity:1" />
      <path
         inkscape:connector-curvature="0"
         id="path4572"
         d="M 83.06154,165.86206 C 60.23011,163.35648 40.53313,148.79963 31.5053,127.75996 22.524951,106.83093 25.559941,82.706258 39.49116,64.281597 43.54689,58.917719 50.882039,52.321875 56.65557,48.847193 c 10.44812,-6.288002 21.01763,-9.221985 33.28513,-9.2396 12.33427,-0.01771 24.20977,3.51611 34.36204,10.225189 l 2.74433,1.813581 1.26565,2.678251 c 2.86106,6.054348 5.03052,15.145143 5.01383,21.009743 -0.009,3.141391 -1.02222,4.908221 -3.55853,6.204951 -1.56975,0.80256 -2.37446,0.98785 -5.52796,1.27286 -5.07805,0.458952 -7.35904,1.324212 -9.73192,3.691642 -1.80101,1.79687 -3.04514,4.1765 -4.97995,9.525102 -2.74716,7.594238 -5.25757,11.457678 -8.73957,13.449928 -0.800357,0.45793 -1.527027,0.83372 -1.614807,0.83508 -0.0878,0.001 -0.10562,-0.56306 -0.0397,-1.25428 0.17327,-1.81571 -0.33439,-4.17773 -1.32178,-6.1499 -1.39059,-2.77745 -3.015763,-3.310788 -4.763343,-1.5632 -0.76075,0.76075 -0.78527,0.85755 -0.6099,2.40761 l 0.18271,1.61499 -1.76335,-0.16466 c -2.77526,-0.25916 -5.68029,-1.8468 -5.68029,-3.10436 0,-0.69452 1.00533,-1.80008 2.18338,-2.401078 0.59126,-0.30164 2.45509,-0.83461 4.14185,-1.18439 5.617623,-1.16492 7.209733,-2.47312 7.391543,-6.073502 0.0532,-1.05363 -0.0371,-2.53997 -0.20078,-3.30296 -0.29132,-1.35841 -0.27289,-1.44013 0.88627,-3.92901 1.526987,-3.278652 1.803567,-4.528572 1.821167,-8.230273 0.0506,-10.63612 -6.78644,-17.226755 -19.20672,-18.514673 -4.83683,-0.501554 -9.95063,0.504328 -13.60104,2.67532 -1.97636,1.175389 -4.61546,3.646203 -6.0665,5.679663 -3.59394,5.03646 -5.55387,12.370271 -4.50053,16.840423 0.73335,3.11222 2.11117,5.41041 5.58343,9.3131 2.54369,2.859042 2.90229,3.567102 2.88772,5.702002 -0.009,1.332058 -0.26639,2.435598 -1.14131,4.894788 -3.79768,10.67445 -4.12954,12.15739 -3.90791,17.4625 0.45067,10.7876 6.84332,19.98779 16.06776,23.12445 3.25061,1.10533 5.7947,1.44489 9.577,1.27825 3.87612,-0.17078 6.63027,-0.82968 9.594043,-2.29525 2.47672,-1.22473 3.980987,-2.60168 5.688297,-5.20686 1.17534,-1.79345 1.57681,-2.66242 3.34028,-7.23 0.89352,-2.31432 1.78755,-3.0283 3.78298,-3.02112 1.76405,0.006 2.69635,0.6156 6.30247,4.11867 3.21695,3.12501 4.76126,4.16328 6.2099,4.17501 2.84231,0.023 7.61669,-3.89186 7.61669,-6.2455 0,-1.37227 -0.86225,-1.79516 -3.24721,-1.59258 -1.05169,0.0893 -2.28595,0.23545 -2.74281,0.32472 -0.69978,0.13674 -0.99603,0.0129 -1.88041,-0.78609 -0.57737,-0.52162 -1.68373,-1.99171 -2.45858,-3.26688 -4.05847,-6.67902 -6.96511,-9.32994 -10.22994,-9.32994 -0.48703,0 -1.56715,0.25121 -2.40026,0.55825 -3.84458,1.4169 -4.88469,1.62787 -8.182227,1.65962 -2.26577,0.0218 -3.326513,-0.0675 -3.558663,-0.29964 -0.26458,-0.26459 -0.15155,-0.33073 0.565183,-0.33073 3.0071,0 8.194287,-2.26375 10.927437,-4.76885 3.25478,-2.9832 5.28944,-6.47975 8.00238,-13.751988 2.15446,-5.775182 2.83419,-6.705532 5.41795,-7.415552 1.50986,-0.41491 6.24141,-0.41772 9.61003,-0.006 7.45111,0.91135 12.27366,-2.44914 14.22006,-9.908942 0.42378,-1.6242 0.56265,-3.025541 0.59686,-6.023031 0.0519,-4.54836 -0.039,-4.5564 2.28616,0.20219 4.86035,9.947013 6.90922,20.175965 6.31234,31.514213 -1.19286,22.6593 -14.82882,43.20508 -35.27684,53.15284 -5.93892,2.88923 -12.06239,4.82661 -18.388527,5.81787 -3.30068,0.5172 -12.850333,0.74358 -16.139583,0.38261 z"
         style="fill:#000000;stroke-width:0.26458332" />
      <path
         inkscape:connector-curvature="0"
         id="path4527"
         d="m 100.64133,22.951295 -4.748647,13.930547 a 66.250988,66.250988 0 0 0 -6.203414,-0.310354 66.250988,66.250988 0 0 0 -8.599345,0.64094 l -5.31005,-13.884569 a 80.711868,80.711868 0 0 0 -16.549019,4.810723 l 2.872273,14.537463 A 66.250988,66.250988 0 0 0 49.410321,50.280417 L 37.950195,40.976222 A 80.711868,80.711868 0 0 0 25.997641,53.404654 l 9.706508,11.096895 A 66.250988,66.250988 0 0 0 28.510363,77.455053 L 13.982096,75.13544 A 80.711868,80.711868 0 0 0 9.8178275,91.870681 l 13.9305475,4.748642 a 66.250988,66.250988 0 0 0 -0.310354,6.203417 66.250988,66.250988 0 0 0 0.64094,8.59934 l -13.884569,5.3096 a 80.711868,80.711868 0 0 0 4.810723,16.54946 l 14.537463,-2.87227 a 66.250988,66.250988 0 0 0 7.604374,12.69281 l -9.304196,11.46013 a 80.711868,80.711868 0 0 0 12.428431,11.95256 l 11.096896,-9.70651 a 66.250988,66.250988 0 0 0 12.953504,7.19378 l -2.319613,14.52781 a 80.711868,80.711868 0 0 0 16.735233,4.16473 l 4.748652,-13.93102 a 66.250988,66.250988 0 0 0 6.20341,0.31035 66.250988,66.250988 0 0 0 8.598884,-0.64092 l 5.310047,13.88502 a 80.711868,80.711868 0 0 0 16.54948,-4.81072 l -2.87227,-14.53747 a 66.250988,66.250988 0 0 0 12.69281,-7.60482 l 11.46058,9.30419 a 80.711868,80.711868 0 0 0 11.95256,-12.42843 l -9.70651,-11.0969 a 66.250988,66.250988 0 0 0 7.19333,-12.95351 l 14.52827,2.31962 a 80.711868,80.711868 0 0 0 4.16426,-16.73476 l -13.931,-4.74866 a 66.250988,66.250988 0 0 0 0.31034,-6.20341 66.250988,66.250988 0 0 0 -0.64093,-8.598887 l 13.88503,-5.310052 A 80.711868,80.711868 0 0 0 164.37343,72.36432 l -14.53747,2.872273 a 66.250988,66.250988 0 0 0 -7.60437,-12.693266 l 9.30373,-11.460125 A 80.711868,80.711868 0 0 0 139.10689,39.130647 L 128.01,48.837153 A 66.250988,66.250988 0 0 0 115.05649,41.643827 L 117.3761,27.115562 A 80.711868,80.711868 0 0 0 100.64133,22.951295 Z M 89.689269,51.094235 A 51.72816,51.72816 0 0 1 141.41731,102.82274 51.72816,51.72816 0 0 1 89.689269,154.55078 51.72816,51.72816 0 0 1 37.96123,102.82274 51.72816,51.72816 0 0 1 89.689269,51.094235 Z"
         style="fill:#4a5f73;fill-opacity:1;stroke:none;stroke-width:0.2354096;stroke-linecap:butt;stroke-linejoin:round;stroke-miterlimit:4;stroke-dasharray:none;stroke-opacity:1" />
    </g>
  </g>
</svg>
